<svg><metadata>Created by FontForge 20090914 at Fri Feb 24 00:29:20 2012 By root Copyright 2001 Superlooper</metadata><defs><font id="Superscript" horiz-adv-x="700"><font-face x-height="500" ascent="800" bbox="-100 -200 1100 800" cap-height="700" descent="-200" font-family="superscript" font-stretch="normal" font-weight="400" panose-1="0 0 4 0 0 0 0 0 0 0" underline-position="-123" underline-thickness="20" unicode-range="U+0020-U+00FC" units-per-em="1000"/><glyph d="M63 0v800h375v-800h-375zM125 63h250v675h-250v-675z" glyph-name=".notdef" horiz-adv-x="500"/><glyph glyph-name=".null" horiz-adv-x="0"/><glyph glyph-name="nonmarkingreturn" horiz-adv-x="500"/><glyph glyph-name="space" horiz-adv-x="500"/><glyph d="M200 200h-200v500h200v-500zM200 0h-200v100h200v-100z" glyph-name="exclam" horiz-adv-x="300" unicode="!"/><glyph d="M500 700h-100v-100h-100v200h200v-100zM200 700h-100v-100h-100v200h200v-100z" glyph-name="quotedbl" horiz-adv-x="600" unicode="&quot;"/><glyph d="M600 0h-100v100h-100v-100h-310v100h-90v200h90v100h-90v200h90v100h310v-100h100v-200h-100v-100h200v-100h-100v-100h100v-100zM400 400v200h-200v-200h200zM400 100v200h-200v-200h200z" glyph-name="ampersand" horiz-adv-x="600" unicode="&amp;"/><glyph d="M200 700h-100v-100h-100v200h200v-100z" glyph-name="quotesingle" horiz-adv-x="300" unicode="'"/><glyph d="M300 -100h-200v100h-100v700h100v100h200v-100h-100v-700h100v-100z" glyph-name="parenleft" horiz-adv-x="400" unicode="("/><glyph d="M300 0h-100v-100h-200v100h100v700h-100v100h200v-100h100v-700z" glyph-name="parenright" horiz-adv-x="400" unicode=")"/><glyph d="M400 300h-100v-100h-200v100h-100v100h100v100h200v-100h100v-100z" glyph-name="plus" horiz-adv-x="500" unicode="+"/><glyph d="M300 0h-100v-100h-200v100h100v100h200v-100zM0 -100z" glyph-name="comma" horiz-adv-x="400" unicode=","/><glyph d="M400 300h-400v100h400v-100z" glyph-name="hyphen" horiz-adv-x="500" unicode="-"/><glyph d="M400 300h-400v100h400v-100z" glyph-name="hyphen" horiz-adv-x="500" unicode="‐"/><glyph d="M200 0h-200v100h200v-100z" glyph-name="period" horiz-adv-x="300" unicode="."/><glyph d="M500 500h-100v-200h-100v-200h-100v-100h-200v100h100v200h100v200h100v100h200v-100z" glyph-name="slash" horiz-adv-x="1000" unicode="/"/><glyph d="M500 100h-90v-100h-310v100h-100v500h100v100h310v-100h90v-500zM300 100v500h-200v-500h200z" glyph-name="zero" horiz-adv-x="600" unicode="0"/><glyph d="M500 0h-400v100h100v400h-100v-100h-100v200h100v100h200v-100h100v-500h100v-100z" glyph-name="one" horiz-adv-x="600" unicode="1"/><glyph d="M600 100h-100v-100h-310v100h-90v-100h-100v300l300 300h-200v-100h-100v100h100v100h310v-100h90v-100l-200 -200v-200h200v100h100v-100z" glyph-name="two" unicode="2"/><glyph d="M500 100h-90v-100h-310v100h-100v100h100v-100h200v200h-200v100h200v200h-200v-100h-100v100h100v100h310v-100h90v-200h-90v-100h90v-200z" glyph-name="three" horiz-adv-x="600" unicode="3"/><glyph d="M600 0h-300v100h100v200h-300v100h-100v300h200v-300h200v300h200v-100h-100v-500h100v-100z" glyph-name="four" unicode="4"/><glyph d="M500 100h-90v-100h-310v100h-100v100h100v-100h200v210h-300v390h500v-100h-300v-100h150l150 -150v-250z" glyph-name="five" horiz-adv-x="600" unicode="5"/><glyph d="M500 100h-90v-100h-310v100h-100v500h100v100h310v-100h-210v-100h210v-100h90v-300zM300 100v300h-100v-300h100z" glyph-name="six" horiz-adv-x="600" unicode="6"/><glyph d="M500 200h-200v-200h-200v300h-100v100h200v200h-200v100h500v-300h-100v-100h100v-100z" glyph-name="seven" horiz-adv-x="600" unicode="7"/><glyph d="M500 100h-100v-100h-310v100h-90v200h90v100h-90v200h90v100h310v-100h100v-200h-100v-100h100v-200zM400 400v200h-200v-200h200zM400 100v200h-200v-200h200z" glyph-name="eight" horiz-adv-x="600" unicode="8"/><glyph d="M500 100h-90v-100h-310v100h200v200h-200v100h-100v200h100v100h310v-100h90v-500zM300 400v200h-100v-200h100z" glyph-name="nine" horiz-adv-x="600" unicode="9"/><glyph d="M200 200h-200v100h200v-100zM200 0h-200v100h200v-100z" glyph-name="colon" horiz-adv-x="300" unicode=":"/><glyph d="M200 200h-200v100h200v-100zM200 0h-100v-100h-200v100h100v100h200v-100z" glyph-name="semicolon" horiz-adv-x="300" unicode=";"/><glyph d="M400 0h-200v100h-100v200h-100v100h100v200h100v100h200v-100h-100v-200h-100v-100h100v-200h100v-100z" glyph-name="less" horiz-adv-x="500" unicode="&lt;"/><glyph d="M400 300h-400v100h400v-100zM400 100h-400v100h400v-100z" glyph-name="equal" horiz-adv-x="500" unicode="="/><glyph d="M400 300h-100v-200h-100v-100h-200v100h100v200h100v100h-100v200h-100v100h200v-100h100v-200h100v-100z" glyph-name="greater" horiz-adv-x="500" unicode="&gt;"/><glyph d="M500 400l-200 -200h-200v100l200 200v100h-200v-100h-100v100h100v100h310v-100h90v-200zM300 0h-200v100h200v-100z" glyph-name="question" horiz-adv-x="600" unicode="?"/><glyph d="M900 100h-100v-100h-500v-100h500v-100h-500v100h-100v100h-100v100h-100v300h100v100h100v100h100v100h400v-100h100v-100h100v-400zM700 500v100h-400v-100h400zM800 100v400h-100v-400h100zM300 400v100h-100v-100h100zM500 100v300h-100v-300h100zM200 100v300h-100 v-300h100zM300 0v100h-100v-100h100z" glyph-name="at" horiz-adv-x="900" unicode="@"/><glyph d="M800 0h-200v300h-200v-100h-100v-200h-310v100h110v200h100v200h100v200h400v-600h100v-100zM600 400v200h-100v-100h-100v-100h200z" glyph-name="A" horiz-adv-x="800" unicode="A"/><glyph d="M700 100h-200v-100h-500v100h100v500h-100v100h500v-100h100v-200h-100v-100h100v-100h100v-100zM500 400v200h-200v-200h200zM500 100v200h-200v-200h200z" glyph-name="B" unicode="B"/><glyph d="M500 100h-100v-100h-310v100h-90v500h90v100h310v-100h100v-100h-100v100h-200v-500h200v100h100v-100z" glyph-name="C" horiz-adv-x="500" unicode="C"/><glyph d="M700 100h-200v-100h-500v100h100v500h-97v100h497v-100h100v-400h100v-100zM500 100v500h-200v-500h200z" glyph-name="D" unicode="D"/><glyph d="M600 100h-100v-100h-500v100h100v500h-100v100h500v-100h100v-100h-100v100h-200v-200h200v-100h-200v-200h200v100h100v-100z" glyph-name="E" horiz-adv-x="600" unicode="E"/><glyph d="M600 300h-300v-200h100v-100h-400v100h100v500h-100v100h500v-100h100v-100h-200v100h-100v-200h300v-100z" glyph-name="F" horiz-adv-x="600" unicode="F"/><glyph d="M600 300h-100v-300h-410v100h-90v500h90v100h310v-100h100v-100h-100v100h-200v-500h200v200h-100v100h300v-100z" glyph-name="G" horiz-adv-x="600" unicode="G"/><glyph d="M700 0h-300v300h-100v-200h-100v-100h-200v100h100v500h-100v100h300v-300h100v200h100v100h200v-100h-100v-500h100v-100z" glyph-name="H" unicode="H"/><glyph d="M400 0h-400v100h100v500h-100v100h400v-100h-100v-500h100v-100z" glyph-name="I" horiz-adv-x="400" unicode="I"/><glyph d="M510 100h-110v-100h-300v100h-100v100h100v-100h100v500h-200v100h310v-100h90v-400h110v-100z" glyph-name="J" horiz-adv-x="500" unicode="J"/><glyph d="M800 100h-100v-100h-200v100h-100v200h-100v-300h-310v100h110v500h-110v100h310v-300h100v200h100v100h200v-100h-100v-200h-100v-100h100v-200h100v100h100v-100z" glyph-name="K" horiz-adv-x="800" unicode="K"/><glyph d="M600 100h-100v-100h-500v100h100v500h90v100h310v-100h100v-100h-100v100h-200v-500h200v100h100v-100z" glyph-name="L" horiz-adv-x="600" unicode="L"/><glyph d="M900 100h-100v-100h-300v310h-100v-110h-100v110h-100v-210h-100v-100h-100v100h100v500h-100v100h200v-100h100v-200h100v100h100v100h100v100h100v-600h100v100h100v-100z" glyph-name="M" horiz-adv-x="900" unicode="M"/><glyph d="M700 0h-200v100h-100v100h-100v-100h-100v-100h-200v100h100v500h-100v100h200v-100h100v-100h100v-100h100v300h200v-100h-100v-500h100v-100z" glyph-name="N" unicode="N"/><glyph d="M600 500h-100v-400h-100v-100h-310v100h-90v500h90v100h410v-100h100v-100zM400 100v400h-100v100h-100v-500h200z" glyph-name="O" horiz-adv-x="600" unicode="O"/><glyph d="M600 300h-100v-100h-200v-200h-310v100h110v500h-110v100h510v-100h100v-300zM400 300v300h-100v-300h100z" glyph-name="P" horiz-adv-x="600" unicode="P"/><glyph d="M600 -100h-200v100h-310v100h-90v500h90v100h310v-100h100v-500h-100v-100h200v-100zM400 200v400h-200v-500h100v100h100z" glyph-name="Q" horiz-adv-x="600" unicode="Q"/><glyph d="M710 0h-310v300h-100v-300h-310v100h110v500h-110v100h510v-100h100v-200h-100v-100h100v-200h110v-100zM400 400v200h-100v-200h100z" glyph-name="R" unicode="R"/><glyph d="M600 100h-200v-100h-300v100h-100v100h100v-100h200v100l-300 300v100h100v100h300v-100h100v-100h-100v100h-200l300 -300v-100h100v-100z" glyph-name="S" horiz-adv-x="600" unicode="S"/><glyph d="M810 500h-210v100h-90v-500h90v-100h-400v100h90v500h-80v-100h-210v100h100v100h600v-100h110v-100z" glyph-name="T" unicode="T"/><glyph d="M800 100h-100v-100h-200v100h-100v-100h-200v100h-100v500h-110v100h310v-600h100v600h200v-600h100v100h100v-100z" glyph-name="U" horiz-adv-x="800" unicode="U"/><glyph d="M800 600h-100v-100h-100v-400h-100v-100h-310v100h-90v500h-110v100h310v-600h200v400h-100v200h200v-100h100v100h100v-100z" glyph-name="V" unicode="V"/><glyph d="M1100 600h-100v-100h-100v-400h-100v-100h-300v100h-100v-100h-200v100h-100v500h-110v100h310v-600h100v600h200v-600h200v400h-100v200h200v-100h100v100h100v-100z" glyph-name="W" horiz-adv-x="1000" unicode="W"/><glyph d="M700 100h-100v-100h-290v110h-110v-110h-200v100h90v100h110v400h-200v100h310v-100h90v100h200v-100h-90v-110h-110v-390h200v100h100v-100z" glyph-name="X" unicode="X"/><glyph d="M700 200h-100v-100h-90v-100h-310v100h-100v100h100v100h-100v300h-100v100h300v-400h100v400h200v-400h100v-100zM400 100v100h-200v-100h200z" glyph-name="Y" unicode="Y"/><glyph d="M700 100h-100v-100h-310v100h-90v-100h-200v100h100v100h100v200h90v200h-290v100h600v-300h-90v-200h-100v-100h190v100h100v-100z" glyph-name="Z" unicode="Z"/><glyph d="M300 -100h-300v900h300v-100h-100v-700h100v-100z" glyph-name="bracketleft" horiz-adv-x="400" unicode="["/><glyph d="M500 0h-200v100h-100v200h-100v200h-100v100h200v-100h100v-200h100v-200h100v-100z" glyph-name="backslash" horiz-adv-x="1000" unicode="\"/><glyph d="M300 -100h-300v100h100v700h-100v100h300v-900z" glyph-name="bracketright" horiz-adv-x="400" unicode="]"/><glyph d="M400 0h-400v100h400v-100z" glyph-name="underscore" horiz-adv-x="400" unicode="_"/><glyph d="M1100 0h-100v100h100v-100z" glyph-name="grave" horiz-adv-x="1000" unicode="`"/><glyph d="M700 100h-100v-100h-500v100h-100v300h100v100h400v-400h100v100h100v-100zM300 100v300h-100v-300h100z" glyph-name="a" unicode="a"/><glyph d="M700 200h-100v-100h-200v-100h-400v700h200v-200h200v-100h100v-200h100v100h100v-100zM300 100v300h-100v-300h100z" glyph-name="b" unicode="b"/><glyph d="M500 100h-100v-100h-310v100h-90v300h90v100h310v-100h-200v-300h200v100h100v-100z" glyph-name="c" horiz-adv-x="500" unicode="c"/><glyph d="M700 100h-100v-100h-500v100h-100v300h100v100h200v200h200v-600h100v100h100v-100zM300 100v300h-100v-300h100z" glyph-name="d" unicode="d"/><glyph d="M600 100h-100v-100h-410v100h-90v300h90v100h310v-300h-200v-100h300v100h100v-100zM300 300v100h-100v-100h100z" glyph-name="e" horiz-adv-x="600" unicode="e"/><glyph d="M500 100h-100v-100h-200v-200h-200v800h100v100h200v-100h100v-300h-100v-100h-100v-100h200v100h100v-100zM300 300v300h-100v-300h100z" glyph-name="f" horiz-adv-x="500" unicode="f"/><glyph d="M700 100h-100v-100h-100v-100h-100v-100h-200v100h100v100h-200v100h-100v300h100v100h400v-400h100v100h100v-100zM300 100v300h-100v-300h100z" glyph-name="g" unicode="g"/><glyph d="M700 100h-100v-100h-300v400h-100v-400h-200v700h200v-200h200v-100h100v-300h100v100h100v-100z" glyph-name="h" unicode="h"/><glyph d="M200 600h-200v100h200v-100zM400 100h-100v-100h-300v500h200v-400h100v100h100v-100z" glyph-name="i" horiz-adv-x="400" unicode="i"/><glyph d="M200 600h-200v100h200v-100zM400 100h-100v-100h-100v-100h-100v-100h-200v100h100v600h200v-400h100v100h100v-100z" glyph-name="j" horiz-adv-x="400" unicode="j"/><glyph d="M700 100h-100v-100h-200v100h-100v200h-100v-300h-200v700h200v-300h100v100h200v-100h-100v-100h100v-200h100v100h100v-100z" glyph-name="k" unicode="k"/><glyph d="M500 100h-100v-100h-300v100h-100v500h100v100h200v-100h100v-300h-100v-100h-100v-100h200v100h100v-100zM300 300v300h-100v-300h100z" glyph-name="l" horiz-adv-x="500" unicode="l"/><glyph d="M1000 100h-100v-100h-300v400h-100v-400h-200v400h-100v-400h-200v500h700v-100h100v-300h100v100h100v-100z" glyph-name="m" horiz-adv-x="1000" unicode="m"/><glyph d="M700 100h-100v-100h-300v400h-100v-400h-200v500h400v-100h100v-300h100v100h100v-100z" glyph-name="n" unicode="n"/><glyph d="M700 400h-100v-100h-100v-200h-90v-100h-310v100h-100v300h100v100h400v-100h100v100h100v-100zM300 100v300h-100v-300h100z" glyph-name="o" unicode="o"/><glyph d="M700 200h-100v-100h-190v-100h-210v-200h-200v600h100v100h310v-100h90v-200h100v100h100v-100zM300 100v300h-100v-300h100z" glyph-name="p" unicode="p"/><glyph d="M700 100h-100v-100h-100v-200h-200v200h-200v100h-100v300h100v100h400v-400h100v100h100v-100zM300 100v300h-100v-300h100z" glyph-name="q" unicode="q"/><glyph d="M500 400h-100v-100h-200v-300h-200v500h310v-100h90v100h100v-100z" glyph-name="r" horiz-adv-x="500" unicode="r"/><glyph d="M600 100h-100v-100h-400v100h-100v100h100v100h-100v100h100v100h400v-100h-190v-100h100v-100h190v-100zM200 100v100h-100v-100h100z" glyph-name="s" horiz-adv-x="600" unicode="s"/><glyph d="M400 100h-100v-100h-200v100h-100v600h200v-200h100v-100h-100v-300h100v100h100v-100z" glyph-name="t" horiz-adv-x="400" unicode="t"/><glyph d="M700 100h-100v-100h-500v100h-100v400h200v-400h100v400h200v-400h100v100h100v-100z" glyph-name="u" unicode="u"/><glyph d="M700 400h-100v-100h-100v-200h-100v-100h-310v100h-90v400h200v-400h200v200h-100v200h200v-100h100v100h100v-100z" glyph-name="v" unicode="v"/><glyph d="M1000 400h-100v-100h-100v-200h-100v-100h-310v100h-90v-100h-200v100h-100v400h200v-400h100v400h200v-400h200v200h-100v200h200v-100h100v100h100v-100z" glyph-name="w" horiz-adv-x="1000" unicode="w"/><glyph d="M700 100h-100v-100h-600v100h200v300h-200v100h310v-100h90v100h200v-100h-90v-100h-110v-200h200v100h100v-100z" glyph-name="x" unicode="x"/><glyph d="M700 100h-100v-100h-100v-100h-100v-100h-200v100h100v100h-200v100h-100v400h200v-400h100v400h200v-400h100v100h100v-100z" glyph-name="y" unicode="y"/><glyph d="M600 100h-100v-100h-310v100h-90v-100h-100v200h100v100h90v100h-190v100h410v-100h90v-100h-90v-100h-100v-100h190v100h100v-100z" glyph-name="z" horiz-adv-x="600" unicode="z"/><glyph d="M400 0h-200v100h-100v200h-100v100h100v200h100v100h200v-100h-100v-200h-100v-100h100v-200h100v-100z" glyph-name="braceleft" horiz-adv-x="500" unicode="{"/><glyph d="M200 -100h-200v900h200v-900z" glyph-name="bar" horiz-adv-x="300" unicode="|"/><glyph d="M400 300h-100v-200h-100v-100h-200v100h100v200h100v100h-100v200h-100v100h200v-100h100v-200h100v-100z" glyph-name="braceright" horiz-adv-x="500" unicode="}"/><glyph d="M600 100h-200v-100h-200v100h100v200h-100v100h100v200h-200v-600h-100v600h100v100h300v-100h100v-200h-100v-100h100v-100h100v-100z" glyph-name="germandbls" horiz-adv-x="600" unicode="ß"/><glyph d="M400 300h-400v100h400v-100z" glyph-name="minus" horiz-adv-x="500" unicode="­"/><glyph d="M400 300h-400v100h400v-100z" glyph-name="minus" horiz-adv-x="500" unicode="−"/><glyph d="M700 700h-200v100h200v-100zM400 700h-200v100h200v-100zM800 0h-200v200h-200v-100h-100v-100h-310v100h110v100h100v200h100v200h400v-500h100v-100zM600 300v200h-100v-100h-100v-100h200z" glyph-name="Adieresis" horiz-adv-x="800" unicode="Ä"/><glyph d="M500 700h-200v100h200v-100zM200 700h-200v100h200v-100zM600 400h-100v-300h-100v-100h-310v100h-90v400h90v100h410v-100h100v-100zM400 100v300h-100v100h-100v-400h200z" glyph-name="Odieresis" horiz-adv-x="600" unicode="Ö"/><glyph d="M600 700h-200v100h200v-100zM300 700h-200v100h200v-100zM800 100h-100v-100h-200v100h-100v-100h-210v100h-90v400h-100v100h300v-500h100v500h200v-500h100v100h100v-100z" glyph-name="Udieresis" horiz-adv-x="800" unicode="Ü"/><glyph d="M500 600h-200v100h200v-100zM200 600h-200v100h200v-100zM700 100h-100v-100h-500v100h-100v300h100v100h400v-400h100v100h100v-100zM300 100v300h-100v-300h100z" glyph-name="adieresis" unicode="ä"/><glyph d="M500 600h-200v100h200v-100zM200 600h-200v100h200v-100zM700 400h-100v-100h-100v-200h-100v-100h-300v100h-100v300h100v100h400v-100h100v100h100v-100zM300 100v300h-100v-300h100z" glyph-name="odieresis" unicode="ö"/><glyph d="M500 600h-200v100h200v-100zM200 600h-200v100h200v-100zM700 100h-100v-100h-500v100h-100v400h200v-400h100v400h200v-400h100v100h100v-100z" glyph-name="udieresis" unicode="ü"/><glyph glyph-name="nonbreakingspace" horiz-adv-x="500"/></font>
</defs>
</svg>
